<svg xmlns="http://www.w3.org/2000/svg" xmlns:svg="http://www.w3.org/2000/svg" id="svg2" width="500" height="500" version="1.1" viewBox="0 0 500 500"><metadata id="metadata7"/><g id="layer1" transform="translate(0,-552.36216)"><circle style="fill:none;fill-opacity:1;stroke:#fff;stroke-width:5.66307306;stroke-miterlimit:4;stroke-dasharray:none;stroke-opacity:1" id="path4136" cx="600.73" cy="554.911" r="37.297" transform="matrix(0.81186151,0.58385006,-0.58385006,0.81186151,0,0)"/><path style="fill:#fff;fill-opacity:1;stroke:none;stroke-width:18.60000038;stroke-miterlimit:4;stroke-dasharray:none;stroke-opacity:1" id="rect4138" d="m 185.16143,780.76181 -9.71082,-6.98353 1.93224,-6.11088 12.76957,9.18323 z"/><path style="fill:#fff;fill-opacity:1;stroke:none;stroke-width:18.60000038;stroke-miterlimit:4;stroke-dasharray:none;stroke-opacity:1" id="rect4138-9" d="m 141.33787,821.43749 9.71082,6.98353 -1.93225,6.11088 -12.76957,-9.18323 z"/><path style="fill:#fff;fill-opacity:1;stroke:none;stroke-width:18.60000038;stroke-miterlimit:4;stroke-dasharray:none;stroke-opacity:1" id="rect4138-9-5" d="m 134.4007,794.96366 0.73304,11.9387 -5.95537,2.36855 -0.96393,-15.69919 z"/><path style="fill:#fff;fill-opacity:1;stroke:none;stroke-width:18.60000038;stroke-miterlimit:4;stroke-dasharray:none;stroke-opacity:1" id="rect4138-9-5-8" d="m 145.09067,777.66307 10.56012,-5.61728 -1.09475,-6.31489 -13.88637,7.38662 z"/><path style="fill:#fff;fill-opacity:1;stroke:none;stroke-width:18.60000038;stroke-miterlimit:4;stroke-dasharray:none;stroke-opacity:1" id="rect4138-9-5-6" d="m 180.40384,825.21189 -10.80339,5.13384 0.80797,6.35795 14.20629,-6.75092 z"/><path style="fill:#fff;fill-opacity:1;stroke:none;stroke-width:18.60000038;stroke-miterlimit:4;stroke-dasharray:none;stroke-opacity:1" id="rect4138-9-5-8-9" d="m 192.92286,806.44626 -0.73304,-11.9387 5.95537,-2.36854 0.96393,15.69918 z"/><rect style="fill:#fff;fill-opacity:1;stroke:none;stroke-width:18.60000038;stroke-miterlimit:4;stroke-dasharray:none;stroke-opacity:1" id="rect4249" width="169.551" height="4.06" x="163.003" y="761.102"/><rect style="fill:#fff;fill-opacity:1;stroke:none;stroke-width:18.60000038;stroke-miterlimit:4;stroke-dasharray:none;stroke-opacity:1" id="rect4249-1" width="169.551" height="4.06" x="163.35" y="837.207"/><circle style="fill:none;fill-opacity:1;stroke:#fff;stroke-width:5.66307306;stroke-miterlimit:4;stroke-dasharray:none;stroke-opacity:1" id="path4136-3" cx="588.701" cy="-637.238" r="37.297" transform="matrix(-0.41821068,0.90835006,-0.90835006,-0.41821068,0,0)"/><path style="fill:#fff;fill-opacity:1;stroke:none;stroke-width:18.60000038;stroke-miterlimit:4;stroke-dasharray:none;stroke-opacity:1" id="rect4138-0" d="m 356.83339,818.38088 5.00229,-10.86493 6.3673,0.73071 -6.57793,14.28722 z"/><path style="fill:#fff;fill-opacity:1;stroke:none;stroke-width:18.60000038;stroke-miterlimit:4;stroke-dasharray:none;stroke-opacity:1" id="rect4138-9-7" d="m 308.54304,783.12387 -5.00229,10.86494 -6.3673,-0.73072 6.57793,-14.28722 z"/><path style="fill:#fff;fill-opacity:1;stroke:none;stroke-width:18.60000038;stroke-miterlimit:4;stroke-dasharray:none;stroke-opacity:1" id="rect4138-9-5-2" d="m 333.20677,771.26266 -11.57948,2.99761 -3.46138,-5.394 15.22682,-3.9418 z"/><path style="fill:#fff;fill-opacity:1;stroke:none;stroke-width:18.60000038;stroke-miterlimit:4;stroke-dasharray:none;stroke-opacity:1" id="rect4138-9-5-8-0" d="m 352.22925,778.45508 7.52906,9.29426 5.98998,-2.27959 -9.90058,-12.22178 z"/><path style="fill:#fff;fill-opacity:1;stroke:none;stroke-width:18.60000038;stroke-miterlimit:4;stroke-dasharray:none;stroke-opacity:1" id="rect4138-9-5-6-7" d="m 312.2922,822.19227 -7.10092,-9.6253 -6.08696,2.00629 9.3376,12.65713 z"/><path style="fill:#fff;fill-opacity:1;stroke:none;stroke-width:18.60000038;stroke-miterlimit:4;stroke-dasharray:none;stroke-opacity:1" id="rect4138-9-5-8-9-7" d="m 333.10182,830.90059 11.57947,-2.99761 3.46137,5.39401 -15.2268,3.9418 z"/></g></svg>